<svg width="17" height="16" viewBox="0 0 17 16" fill="none" xmlns="http://www.w3.org/2000/svg">
<path d="M12 6H6.5V3.5C6.5 2.96957 6.71071 2.46086 7.08579 2.08579C7.46086 1.71071 7.96957 1.5 8.5 1.5C9.03043 1.5 9.53914 1.71071 9.91421 2.08579C10.2893 2.46086 10.5 2.96957 10.5 3.5C10.5 3.63261 10.5527 3.75979 10.6464 3.85355C10.7402 3.94732 10.8674 4 11 4C11.1326 4 11.2598 3.94732 11.3536 3.85355C11.4473 3.75979 11.5 3.63261 11.5 3.5C11.5 2.70435 11.1839 1.94129 10.6213 1.37868C10.0587 0.81607 9.29565 0.5 8.5 0.5C7.70435 0.5 6.94129 0.81607 6.37868 1.37868C5.81607 1.94129 5.5 2.70435 5.5 3.5V6H5C4.46974 6.00058 3.96137 6.21148 3.58643 6.58643C3.21148 6.96137 3.00058 7.46974 3 8V13.5C3.00058 14.0303 3.21148 14.5386 3.58643 14.9136C3.96137 15.2885 4.46974 15.4994 5 15.5H12C12.5303 15.4994 13.0386 15.2885 13.4136 14.9136C13.7885 14.5386 13.9994 14.0303 14 13.5V8C13.9994 7.46974 13.7885 6.96137 13.4136 6.58643C13.0386 6.21148 12.5303 6.00058 12 6V6Z" fill="white"/>
</svg>
